<?xml version="1.0" standalone="no"?>
<!DOCTYPE svg PUBLIC "-//W3C//DTD SVG 20010904//EN"
 "http://www.w3.org/TR/2001/REC-SVG-20010904/DTD/svg10.dtd">
<svg version="1.0" xmlns="http://www.w3.org/2000/svg"
 width="60.000000pt" height="60.000000pt" viewBox="0 0 752.000000 752.000000"
 preserveAspectRatio="xMidYMid meet">

<g transform="translate(0.000000,752.000000) scale(0.100000,-0.100000)"
fill="#ffff" stroke="none">
<path d="M3650 5645 l0 -144 -157 -3 -158 -3 -3 -92 -3 -93 161 0 160 0 -2
-302 -3 -302 -640 -429 c-352 -235 -641 -432 -643 -437 -6 -16 91 -151 104
-146 7 3 81 50 163 106 l151 100 0 -1055 0 -1055 960 0 960 0 2 1055 3 1055
157 -105 c87 -58 159 -105 161 -105 6 0 97 139 97 148 0 5 -290 203 -645 441
l-645 432 0 300 0 299 160 0 160 0 0 95 0 95 -160 0 -160 0 0 145 0 145 -90 0
-90 0 0 -145z"/>
</g>
</svg>
